<svg width="14" height="14" viewBox="0 0 14 14" fill="none" xmlns="http://www.w3.org/2000/svg">
<path fill-rule="evenodd" clip-rule="evenodd" d="M2.17111 2.17111C2.34196 2.00026 2.61897 2.00026 2.78983 2.17111L7.0013 6.38258L11.2128 2.17111C11.3836 2.00026 11.6606 2.00026 11.8315 2.17111C12.0023 2.34196 12.0023 2.61897 11.8315 2.78983L7.62002 7.0013L11.8315 11.2128C12.0023 11.3836 12.0023 11.6606 11.8315 11.8315C11.6606 12.0023 11.3836 12.0023 11.2128 11.8315L7.0013 7.62002L2.78983 11.8315C2.61897 12.0023 2.34196 12.0023 2.17111 11.8315C2.00026 11.6606 2.00026 11.3836 2.17111 11.2128L6.38258 7.0013L2.17111 2.78983C2.00026 2.61897 2.00026 2.34196 2.17111 2.17111Z" fill="#B60005" stroke="#B60005" stroke-width="0.4" stroke-linecap="round" stroke-linejoin="round"/>
</svg>
