<svg width="6" height="6" viewBox="0 0 6 6" fill="none" xmlns="http://www.w3.org/2000/svg">
<path d="M0.717232 5.01713L1.94288 3.44306C1.98775 3.38543 1.96106 3.30073 1.89126 3.27923L0.14822 2.74237C0.0323159 2.70667 -0.0288539 2.58003 0.0152342 2.46705L0.295418 1.74905C0.337422 1.64141 0.458888 1.58839 0.566379 1.63077L2.19973 2.27471C2.26821 2.3017 2.34235 2.25123 2.34235 2.17763V0.208696C2.34235 0.0934362 2.43579 0 2.55105 0H3.35993C3.47519 0 3.56863 0.0934364 3.56863 0.208696V2.1838C3.56863 2.2557 3.63964 2.30605 3.70749 2.28227L5.34262 1.70926C5.45134 1.67116 5.57037 1.72836 5.60854 1.83706L5.86259 2.56042C5.9015 2.6712 5.84139 2.79226 5.72962 2.82824L3.93512 3.40576C3.86464 3.42845 3.83955 3.51529 3.88708 3.57207L5.09708 5.01764C5.17177 5.10687 5.15905 5.23995 5.06881 5.31343L4.40423 5.85453C4.30854 5.93244 4.16652 5.91076 4.09842 5.80785L2.99406 4.13886C2.95406 4.07841 2.86612 4.07616 2.82307 4.13449L1.63891 5.73928C1.56865 5.83451 1.43334 5.85231 1.34083 5.7785L0.751737 5.30848C0.662396 5.2372 0.647013 5.10731 0.717232 5.01713Z" fill="#B60005"/>
</svg>
