<svg width="96" height="96" viewBox="0 0 96 96" fill="none" xmlns="http://www.w3.org/2000/svg">
<path d="M40 16H16C11.6 16 8.04 19.6 8.04 24L8 72C8 76.4 11.6 80 16 80H80C84.4 80 88 76.4 88 72V32C88 27.6 84.4 24 80 24H48L40 16Z" fill="#B60005" fill-opacity="0.4"/>
<rect x="8" y="24" width="80" height="56" rx="8" fill="#B60005" fill-opacity="0.4"/>
<rect x="76" y="18" width="20" height="20" rx="10" fill="#B60005"/>
<path d="M90 23V33H88.4403L83.8286 26.163H83.7479V33H82V23H83.5866L88.1714 29.837H88.2655V23H90Z" fill="white"/>
</svg>
