<svg width="96" height="96" viewBox="0 0 96 96" fill="none" xmlns="http://www.w3.org/2000/svg">
<path d="M15.6876 78.5008C13.5735 78.5008 11.7644 77.7487 10.2602 76.2445C8.75339 74.7377 8 72.9273 8 70.8132V24.6876C8 22.5735 8.75339 20.7644 10.2602 19.2602C11.7644 17.7534 13.5735 17 15.6876 17H35.5793C36.6043 17 37.5819 17.1922 38.5121 17.5766C39.4397 17.961 40.2559 18.5055 40.9606 19.2102L46.5 25H77.5C79.6141 25 81.1129 25.441 82.6197 26.9478C84.1239 28.452 84.876 30.2611 84.876 32.3752H23.3752C21.2611 32.3752 19.452 33.1273 17.9478 34.6315C16.441 36.1383 15.6876 37.9487 15.6876 40.0628V70.8132L23.2791 45.5402C23.7916 43.8746 24.7372 42.5446 26.1158 41.5504C27.4919 40.5587 29.0128 40.0628 30.6784 40.0628H80.2635C82.89 40.0628 84.9567 41.1032 86.4635 43.184C87.9677 45.2673 88.3675 47.5262 87.6628 49.9606L80.7439 73.0234C80.2314 74.689 79.2871 76.019 77.911 77.0133C76.5324 78.005 75.0103 78.5008 73.3446 78.5008H15.6876Z" fill="#B60005" fill-opacity="0.4"/>
<g clip-path="url(#clip0_586_28204)">
<path d="M15.6876 78.5008C13.5735 78.5008 11.7644 77.7487 10.2602 76.2445C8.75339 74.7377 8 72.9273 8 70.8132V24.6876C8 22.5735 8.75339 20.7644 10.2602 19.2602C11.7644 17.7534 13.5735 17 15.6876 17H35.5793C36.6043 17 37.5819 17.1922 38.5121 17.5766C39.4397 17.961 40.2559 18.5055 40.9606 19.2102L46.5 25H77.5C79.6141 25 81.1129 25.441 82.6197 26.9478C84.1239 28.452 84.876 30.2611 84.876 32.3752H23.3752C21.2611 32.3752 19.452 33.1273 17.9478 34.6315C16.441 36.1383 15.6876 37.9487 15.6876 40.0628V70.8132L23.2791 45.5402C23.7916 43.8746 24.7372 42.5446 26.1158 41.5504C27.4919 40.5587 29.0128 40.0628 30.6784 40.0628H80.2635C82.89 40.0628 84.9567 41.1032 86.4635 43.184C87.9677 45.2673 88.3675 47.5262 87.6628 49.9606L80.7439 73.0234C80.2314 74.689 79.2871 76.019 77.911 77.0133C76.5324 78.005 75.0103 78.5008 73.3446 78.5008H15.6876Z" fill="#B60005" fill-opacity="0.4"/>
</g>
<defs>
<clipPath id="clip0_586_28204">
<rect x="8" y="25" width="80" height="54" rx="8" fill="white"/>
</clipPath>
</defs>
</svg>
