<svg width="10" height="10" viewBox="0 0 10 10" fill="none" xmlns="http://www.w3.org/2000/svg">
<path d="M1.19278 8.36189L3.23552 5.73843C3.31031 5.64239 3.26583 5.50121 3.1495 5.46538L0.24443 4.57061C0.0512556 4.51111 -0.050694 4.30005 0.0227863 4.11175L0.489759 2.91509C0.559765 2.73569 0.762208 2.64732 0.94136 2.71795L3.66362 3.79118C3.77774 3.83617 3.90132 3.75206 3.90132 3.62939V0.347826C3.90132 0.155727 4.05704 0 4.24914 0H5.59729C5.78939 0 5.94511 0.155727 5.94511 0.347826V3.63966C5.94511 3.75949 6.06346 3.84342 6.17654 3.80379L8.90175 2.84877C9.08296 2.78527 9.28134 2.88061 9.34496 3.06176L9.76838 4.26737C9.83323 4.452 9.73305 4.65377 9.54676 4.71373L6.55594 5.67627C6.43846 5.71408 6.39664 5.85881 6.47586 5.95345L8.49253 8.36273C8.61701 8.51145 8.59582 8.73325 8.44542 8.85571L7.33779 9.75755C7.1783 9.8874 6.94159 9.85127 6.8281 9.67976L4.9875 6.89811C4.92082 6.79735 4.77426 6.7936 4.70252 6.89082L2.72892 9.56547C2.61181 9.72418 2.38629 9.75386 2.23211 9.63084L1.25029 8.84747C1.10139 8.72866 1.07575 8.51219 1.19278 8.36189Z" fill="#B60005"/>
</svg>
