<svg width="56" height="56" viewBox="0 0 56 56" fill="none" xmlns="http://www.w3.org/2000/svg">
<path fill-rule="evenodd" clip-rule="evenodd" d="M27.9802 42.4558C27.9824 42.8579 27.9802 43.259 27.9733 43.6589C27.0894 43.2147 26.2075 42.7669 25.3277 42.3156C24.3308 41.7963 23.3623 41.2335 22.4222 40.627C21.7349 40.1769 21.0786 39.6847 20.4533 39.1504C19.8969 38.6669 19.3876 38.1393 18.9254 37.5677C17.9194 36.2906 17.3862 34.8344 17.3257 33.1993C17.2847 31.9006 17.4784 30.6382 17.9068 29.412C18.4004 28.1749 18.765 26.901 19.0006 25.5904C19.4384 23.0616 19.3655 20.548 18.7818 18.0499C18.6468 17.4819 18.4793 16.9236 18.2793 16.375C18.6805 16.375 19.0814 16.375 19.4825 16.375C19.6656 17.2119 19.8422 18.0504 20.0123 18.8908C20.1546 19.6072 20.2549 20.3296 20.3132 21.0579C20.401 22.6347 20.2939 24.1979 19.9918 25.7477C19.8487 26.4616 19.6754 27.168 19.4723 27.8669C19.182 28.8208 18.8948 29.7756 18.6109 30.7313C18.5556 30.9243 18.5032 31.1181 18.4537 31.3124C18.4348 31.3939 18.4212 31.476 18.4126 31.5586C21.6029 28.4617 24.791 25.3626 27.9767 22.2611C27.9813 23.8676 27.9813 25.4742 27.9767 27.0807C24.9874 29.9023 21.9988 32.7245 19.0109 35.5476C18.9877 35.5612 18.9774 35.5806 18.9801 35.6057C19.2757 36.2267 19.6494 36.7941 20.1012 37.308C20.4676 37.7268 20.863 38.1153 21.2873 38.4735C22.0349 39.0934 22.8233 39.6563 23.6527 40.1621C24.5551 40.7126 25.4826 41.2231 26.4351 41.6935C26.7314 41.8279 27.0276 41.9623 27.3238 42.0968C27.5505 42.2043 27.7693 42.3239 27.9802 42.4558Z" fill="#B60005"/>
<path d="M8.18359 16.3711H19.4862L19.7966 23.7537L8.18359 16.3711Z" fill="#B60005"/>
<path fill-rule="evenodd" clip-rule="evenodd" d="M27.9774 42.4558C27.9752 42.858 27.9774 43.259 27.9843 43.6589C28.8681 43.2147 29.75 42.7669 30.6299 42.3156C31.6268 41.7963 32.5952 41.2335 33.5354 40.627C34.2227 40.1769 34.8789 39.6847 35.5042 39.1504C36.0607 38.6669 36.57 38.1393 37.0322 37.5677C38.0382 36.2906 38.5714 34.8344 38.6319 33.1993C38.6729 31.9006 38.4792 30.6382 38.0508 29.412C37.5572 28.1749 37.1926 26.901 36.957 25.5904C36.5191 23.0616 36.5921 20.548 37.1758 18.0499C37.3108 17.4819 37.4783 16.9236 37.6782 16.375C37.2771 16.375 36.8761 16.375 36.475 16.375C36.2919 17.2119 36.1153 18.0504 35.9452 18.8908C35.8029 19.6072 35.7026 20.3296 35.6444 21.0579C35.5565 22.6347 35.6636 24.1979 35.9658 25.7477C36.1089 26.4616 36.2821 27.168 36.4853 27.8669C36.7756 28.8208 37.0628 29.7756 37.3466 30.7313C37.4019 30.9243 37.4543 31.1181 37.5039 31.3124C37.5227 31.3939 37.5363 31.476 37.545 31.5586C34.3547 28.4617 31.1666 25.3626 27.9808 22.2611C27.9763 23.8676 27.9763 25.4742 27.9808 27.0807C30.9701 29.9023 33.9588 32.7245 36.9467 35.5476C36.9699 35.5612 36.9801 35.5806 36.9775 35.6057C36.6819 36.2267 36.3081 36.7941 35.8563 37.308C35.4899 37.7268 35.0946 38.1153 34.6703 38.4735C33.9227 39.0934 33.1342 39.6563 32.3048 40.1621C31.4024 40.7126 30.475 41.2231 29.5225 41.6935C29.2262 41.8279 28.9299 41.9623 28.6337 42.0968C28.407 42.2043 28.1883 42.3239 27.9774 42.4558Z" fill="#B2B9BC"/>
<path d="M47.7732 16.3711H36.4706L36.1602 23.7537L41.8902 20.111L47.7732 16.3711Z" fill="#B2B9BC"/>
</svg>
