<svg width="153" height="18" viewBox="0 0 153 18" fill="none" xmlns="http://www.w3.org/2000/svg">
<path d="M132.189 5.71415C131.715 5.13408 131.012 4.92314 130.572 5.59111C130.906 6.04814 131.117 6.62822 131.117 7.31376C131.117 9.44072 129.078 10.513 126.986 10.513C126.564 10.513 126.143 10.4778 125.721 10.3899C125 10.97 125.018 11.1106 125.123 11.2337C125.545 11.7435 126.107 11.8138 128.252 11.8138C130.678 11.8138 132.049 12.1829 131.979 13.9935C131.873 16.0325 129.482 17.1751 127.127 17.1751C125.316 17.1751 122.539 16.595 122.539 14.5911C122.539 13.9759 123.084 13.5716 123.805 13.0794C124.016 12.9212 124.227 12.7981 124.49 12.5872C123.664 12.3411 123.33 11.8313 123.172 11.3919C123.102 11.181 123.436 11.0052 123.787 10.8118C124.104 10.6536 124.473 10.4778 124.807 10.0911C123.664 9.59892 122.838 8.68486 122.838 7.31376C122.838 5.13408 124.877 4.11454 126.986 4.11454C128.129 4.11454 129.236 4.41337 130.027 5.02861C130.52 4.13212 131.574 3.92118 132.4 4.25517C132.629 4.39579 132.646 4.60673 132.646 4.72978L132.189 5.71415ZM124.771 14.3977C124.771 15.5227 125.791 16.1907 127.074 16.1907C128.586 16.1907 129.746 15.6106 129.746 14.222C129.746 13.22 128.691 12.9915 127.338 12.9915H125.914C125.018 13.554 124.771 13.9759 124.771 14.3977ZM125.018 7.31376C125.018 8.8079 125.861 9.54619 126.986 9.54619C128.094 9.54619 128.92 8.8079 128.92 7.31376C128.92 5.80204 128.094 5.08134 126.986 5.08134C125.861 5.08134 125.018 5.80204 125.018 7.31376Z" fill="#B60005"/>
<path d="M112.449 5.62815C112.449 4.9426 112.221 4.71408 111.658 4.5383V4.3801H114.471C114.559 4.3801 114.664 4.41526 114.664 4.50315V5.68088C115.613 4.23948 117.16 4.13401 118.074 4.2219C119.938 4.3801 120.975 5.61057 120.975 7.52658V11.7981C120.975 12.2199 120.834 12.7297 120.465 12.9934H118.742V7.52658C118.742 6.27854 118.355 5.62815 117.758 5.39963C116.879 5.06565 115.402 5.39963 114.664 7.61448V11.7981C114.664 12.2199 114.523 12.7297 114.154 12.9934H112.449V5.62815Z" fill="#B60005"/>
<path d="M102.289 10.5332C102.289 8.51172 104.24 7.61523 106.525 7.61523C107.193 7.61523 107.703 7.59766 107.984 7.58008V7.50977C107.984 5.94531 107.457 5.17188 106.209 5.17188C104.557 5.17188 103.572 5.92773 103.186 7.05273H102.939V4.96094C102.939 4.83789 103.01 4.75 103.396 4.62695C104.205 4.3457 105.102 4.1875 106.279 4.1875C108.758 4.1875 110.217 5.18945 110.217 7.50977V7.77344L110.094 11.4473C110.076 12.1504 110.164 12.502 110.551 12.4316L110.568 12.5898C110.27 12.7832 109.689 13.0117 109.127 13.1699C109.004 13.2051 108.793 13.2402 108.688 13.1523C108.441 12.9414 108.16 12.5547 108.02 12.1504C107.352 12.9238 106.438 13.1699 105.348 13.1699C103.994 13.1699 102.289 12.3965 102.289 10.5332ZM104.486 10.5332C104.486 11.6758 105.189 12.1855 105.875 12.1855C106.789 12.1855 107.598 11.6934 107.967 10.4453L107.984 8.49414L106.455 8.58203C105.119 8.63477 104.486 9.37305 104.486 10.5332Z" fill="#B60005"/>
<path d="M100.988 5.71415C100.514 5.13408 99.8105 4.92314 99.3711 5.59111C99.7051 6.04814 99.916 6.62822 99.916 7.31376C99.916 9.44072 97.877 10.513 95.7852 10.513C95.3633 10.513 94.9414 10.4778 94.5195 10.3899C93.7988 10.97 93.8164 11.1106 93.9219 11.2337C94.3438 11.7435 94.9062 11.8138 97.0508 11.8138C99.4766 11.8138 100.848 12.1829 100.777 13.9935C100.672 16.0325 98.2812 17.1751 95.9258 17.1751C94.1152 17.1751 91.3379 16.595 91.3379 14.5911C91.3379 13.9759 91.8828 13.5716 92.6035 13.0794C92.8145 12.9212 93.0254 12.7981 93.2891 12.5872C92.4629 12.3411 92.1289 11.8313 91.9707 11.3919C91.9004 11.181 92.2344 11.0052 92.5859 10.8118C92.9023 10.6536 93.2715 10.4778 93.6055 10.0911C92.4629 9.59892 91.6367 8.68486 91.6367 7.31376C91.6367 5.13408 93.6758 4.11454 95.7852 4.11454C96.9277 4.11454 98.0352 4.41337 98.8262 5.02861C99.3184 4.13212 100.373 3.92118 101.199 4.25517C101.428 4.39579 101.445 4.60673 101.445 4.72978L100.988 5.71415ZM93.5703 14.3977C93.5703 15.5227 94.5898 16.1907 95.873 16.1907C97.3848 16.1907 98.5449 15.6106 98.5449 14.222C98.5449 13.22 97.4902 12.9915 96.1367 12.9915H94.7129C93.8164 13.554 93.5703 13.9759 93.5703 14.3977ZM93.8164 7.31376C93.8164 8.8079 94.6602 9.54619 95.7852 9.54619C96.8926 9.54619 97.7188 8.8079 97.7188 7.31376C97.7188 5.80204 96.8926 5.08134 95.7852 5.08134C94.6602 5.08134 93.8164 5.80204 93.8164 7.31376Z" fill="#B60005"/>
<path d="M85.5723 13.1699C83.2871 13.1699 81.0547 11.6406 81.0547 8.66992C81.0547 5.69922 83.2871 4.1875 85.5723 4.1875C87.8574 4.1875 90.0723 5.69922 90.0723 8.66992C90.0723 11.6406 87.8574 13.1699 85.5723 13.1699ZM83.2871 8.66992C83.2871 11.0078 84.2891 12.1855 85.5723 12.1855C86.8555 12.1855 87.8398 11.0078 87.8398 8.66992C87.8398 6.34961 86.8555 5.17188 85.5723 5.17188C84.2891 5.17188 83.2871 6.34961 83.2871 8.66992Z" fill="#B60005"/>
<path d="M75.3418 0C76.6074 0 77.3984 0.158203 78.2246 0.404297C78.6289 0.544922 78.6816 0.615234 78.6816 0.738281V3.04102H78.4531C78.1191 2.07422 77.082 0.984375 75.5879 0.984375C74.1289 0.984375 73.3906 1.95117 73.3906 2.88281C73.3906 3.79688 73.707 4.37695 75.623 5.34375C78.4883 6.80273 79.5781 7.55859 79.5781 9.58008C79.5781 11.7246 77.9961 13.166 74.9375 13.166C73.8477 13.166 72.4414 12.9902 71.3164 12.4453C71.0352 12.2871 71 12.1641 71 11.9707V9.65039H71.2285C71.6504 10.9688 73.0566 12.1816 74.8145 12.1816C76.502 12.1816 77.3281 11.25 77.3281 10.0371C77.3281 8.66602 76.4844 7.92773 74.5332 7.04883C72.7227 6.24023 71.1934 5.2207 71.1934 3.30469C71.1934 1.16016 72.9688 0 75.3418 0Z" fill="#B60005"/>
<path d="M148.023 0.693359C148.023 0.3125 147.896 0.185547 147.584 0.0878906V0H149.146C149.195 0 149.254 0.0195312 149.254 0.0683594V3.06641C149.781 2.26562 150.641 2.20703 151.148 2.24609C152.184 2.33398 152.76 3.01758 152.76 4.08203V6.42578C152.76 6.65039 152.682 6.94336 152.477 7.08008H151.52V4.08203C151.52 3.39844 151.305 3.02734 150.973 2.91016C150.484 2.72461 149.664 2.91016 149.254 4.14062V6.42578C149.254 6.65039 149.176 6.94336 148.971 7.08008H148.023V0.693359Z" fill="#B60005"/>
<path d="M144.254 5.58586V2.87101H143.424V2.32414H144.254V1.54289C144.254 1.17179 144.254 1.02531 143.971 0.947184V0.849527L145.377 0.497965C145.436 0.488199 145.494 0.517496 145.494 0.566324V2.32414H147.008V2.87101H145.494V5.58586C145.494 6.31828 145.709 6.63078 146.129 6.63078C146.5 6.63078 146.734 6.40617 146.969 5.92765H147.096V6.84562C147.096 6.95304 147.076 7.03117 146.988 7.06046C146.803 7.12882 146.432 7.17765 146.119 7.17765C144.83 7.17765 144.254 6.58195 144.254 5.58586Z" fill="#B60005"/>
<path d="M142.164 6.5332C142.164 6.72852 142.115 6.91406 141.988 7.08008H140.924V5.21484H137.857C137.691 5.21484 137.584 5.0293 137.682 4.86328L140.807 0.0585938C140.836 0.0195312 140.875 0 140.934 0H142.057C142.106 0 142.164 0.0195312 142.164 0.0683594V4.6582H143.102V5.21484H142.164V6.5332ZM138.746 4.6582H140.924V1.21094L138.746 4.6582Z" fill="#B60005"/>
<path d="M135.25 1.29883C135.25 1.11328 135.172 1.05469 134.996 1.12305C134.723 1.24023 134.449 1.32812 134.107 1.41602L134 0.976562C134.791 0.703125 135.289 0.478516 135.777 0H136.373C136.432 0 136.49 0.0195312 136.49 0.0683594V6.5332C136.49 6.72852 136.441 6.91406 136.314 7.08008H135.25V1.29883Z" fill="#B60005"/>
<path d="M60.3167 7.6513V12.8346H57.5V3.78464H60.1667V5.43464H60.2667C60.6833 4.33464 61.6833 3.66797 63.0167 3.66797C64.9167 3.66797 66.1667 5.01797 66.15 7.06797V12.8346H63.35V7.6013C63.35 6.58464 62.8 5.96797 61.8667 5.96797C60.9333 5.96797 60.3167 6.6013 60.3167 7.6513Z" fill="white" fill-opacity="0.8"/>
<path d="M51.5 13.0013C48.6666 13.0013 46.95 11.118 46.95 8.33464C46.95 5.5513 48.6666 3.66797 51.5 3.66797C54.3333 3.66797 56.05 5.5513 56.05 8.33464C56.05 11.118 54.3333 13.0013 51.5 13.0013ZM51.5166 10.8846C52.5833 10.8846 53.1833 9.83464 53.1833 8.31797C53.1833 6.8013 52.5833 5.7513 51.5166 5.7513C50.4166 5.7513 49.8166 6.8013 49.8166 8.31797C49.8166 9.83464 50.4166 10.8846 51.5166 10.8846Z" fill="white" fill-opacity="0.8"/>
<path d="M42.6832 12.8333V3.78333H45.4999V12.8333H42.6832ZM44.0999 2.7C43.2999 2.7 42.6499 2.1 42.6499 1.35C42.6499 0.6 43.2999 0 44.0999 0C44.8999 0 45.5666 0.6 45.5666 1.35C45.5666 2.1 44.8999 2.7 44.0999 2.7Z" fill="white" fill-opacity="0.8"/>
<path d="M33.3167 12.8323V0.765625H36.15V10.5156H41.2167V12.8323H33.3167Z" fill="white" fill-opacity="0.8"/>
<path d="M27.5833 13.0013C24.7499 13.0013 23.0166 11.2346 23.0166 8.3513C23.0166 5.5513 24.7666 3.66797 27.4833 3.66797C30.0166 3.66797 31.8499 5.28464 31.8499 8.28464V9.0013H25.7833V9.0513C25.7833 10.218 26.4999 10.968 27.6333 10.968C28.3999 10.968 28.9666 10.6346 29.1999 10.1013H31.8166C31.4833 11.868 29.9333 13.0013 27.5833 13.0013ZM25.7833 7.3513H29.2333C29.2166 6.38464 28.5166 5.7013 27.5499 5.7013C26.5499 5.7013 25.8249 6.40964 25.7833 7.3513Z" fill="white" fill-opacity="0.8"/>
<path d="M13.9834 12.8323V0.765625H16.8001V7.06562H16.9167L19.5334 3.78229H22.7334L19.4834 7.71562L22.8667 12.8323H19.6167L17.4001 9.36562L16.8001 10.0656V12.8323H13.9834Z" fill="white" fill-opacity="0.8"/>
<path d="M9.36659 12.8333V3.78333H12.1833V12.8333H9.36659ZM10.7833 2.7C9.98325 2.7 9.33325 2.1 9.33325 1.35C9.33325 0.6 9.98325 0 10.7833 0C11.5833 0 12.2499 0.6 12.2499 1.35C12.2499 2.1 11.5833 2.7 10.7833 2.7Z" fill="white" fill-opacity="0.8"/>
<path d="M0 12.8323V0.765625H2.83333V10.5156H7.9V12.8323H0Z" fill="white" fill-opacity="0.8"/>
</svg>
